<svg width="16" height="16" viewBox="0 0 16 16" fill="none" xmlns="http://www.w3.org/2000/svg">
<path fill-rule="evenodd" clip-rule="evenodd" d="M12.096 15.2481C11.9786 15.2481 11.8636 15.2151 11.7641 15.1528C11.6646 15.0905 11.5847 15.0015 11.5335 14.8959C11.4822 14.7903 11.4618 14.6724 11.4744 14.5557C11.4871 14.439 11.5323 14.3282 11.605 14.2361C15.886 8.79006 14.866 5.42306 13.876 3.89906C12.53 1.82906 9.707 0.793056 7.166 1.43506C4.738 2.05006 3.215 4.01806 2.988 6.83206C2.961 7.17706 2.624 7.41706 2.315 7.40606C2.14987 7.39254 1.99683 7.31411 1.88943 7.18796C1.78202 7.06181 1.729 6.89823 1.742 6.73306C2.011 3.40006 3.924 0.967056 6.859 0.224056C9.903 -0.543944 13.296 0.713056 14.923 3.21906C16.095 5.02206 17.349 8.95106 12.586 15.0101C12.5277 15.0843 12.4533 15.1443 12.3684 15.1856C12.2835 15.2268 12.1904 15.2482 12.096 15.2481ZM0.625 13.0001C0.45924 13.0001 0.300269 12.9342 0.183058 12.817C0.065848 12.6998 0 12.5408 0 12.3751C0 12.2093 0.065848 12.0503 0.183058 11.9331C0.300269 11.8159 0.45924 11.7501 0.625 11.7501H3.875C5.16752 11.7487 6.40673 11.2347 7.32068 10.3207C8.23464 9.40678 8.74868 8.16758 8.75 6.87505V6.62505C8.75 6.45929 8.81585 6.30032 8.93306 6.18311C9.05027 6.0659 9.20924 6.00005 9.375 6.00005C9.54076 6.00005 9.69973 6.0659 9.81694 6.18311C9.93415 6.30032 10 6.45929 10 6.62505V6.87505C9.99815 8.49894 9.35224 10.0558 8.20398 11.204C7.05572 12.3523 5.49888 12.9982 3.875 13.0001H0.625ZM5.3179 15.8486C5.43342 15.9483 5.58145 16.0021 5.734 16.0001C5.78974 16.0002 5.84524 15.9928 5.899 15.9781C12.69 14.1181 12.965 7.05905 12.96 7.05905C13.109 6.13605 12.849 5.21005 12.231 4.44805C11.61 3.69658 10.7338 3.20029 9.77 3.05405C8.80877 2.88964 7.8207 3.08661 6.996 3.60705C6.17 4.13605 5.633 4.93505 5.487 5.84705L5.272 7.04305C5.17429 7.59176 4.88657 8.08857 4.45927 8.4464C4.03196 8.80422 3.49234 9.00023 2.935 9.00005H0.625C0.45924 9.00005 0.300268 9.0659 0.183058 9.18311C0.065848 9.30032 0 9.45929 0 9.62505C0 9.79081 0.065848 9.94978 0.183058 10.067C0.300268 10.1842 0.45924 10.2501 0.625 10.2501H2.935C3.78558 10.2505 4.6092 9.95159 5.26142 9.40561C5.91364 8.85962 6.35284 8.10145 6.502 7.26405L6.719 6.05505C6.81 5.48905 7.148 4.99305 7.669 4.65905C8.214 4.30905 8.888 4.17905 9.571 4.28805C10.2313 4.38522 10.8327 4.72237 11.26 5.23505C11.455 5.46985 11.5968 5.74411 11.6757 6.03895C11.7546 6.3338 11.7687 6.64224 11.717 6.94305C11.716 7.00405 11.481 13.1521 5.569 14.7721C5.42131 14.8103 5.29275 14.9014 5.20763 15.028C5.12252 15.1546 5.08673 15.308 5.10705 15.4592C5.12737 15.6104 5.20238 15.7489 5.3179 15.8486Z" fill="black"/>
</svg>
