<svg width="16" height="16" viewBox="0 0 16 16" fill="none" xmlns="http://www.w3.org/2000/svg">
<path d="M15.375 7H7.858C7.411 5.279 5.858 4 4 4C1.794 4 0 5.794 0 8C0 10.206 1.794 12 4 12C6.12 12 7.843 10.338 7.975 8.25H12.875V10.5C12.875 10.6658 12.9408 10.8247 13.0581 10.9419C13.1753 11.0592 13.3342 11.125 13.5 11.125C13.6658 11.125 13.8247 11.0592 13.9419 10.9419C14.0592 10.8247 14.125 10.6658 14.125 10.5V8.25H15.375C15.5408 8.25 15.6997 8.18415 15.8169 8.06694C15.9342 7.94973 16 7.79076 16 7.625C16 7.45924 15.9342 7.30027 15.8169 7.18306C15.6997 7.06585 15.5408 7 15.375 7ZM4 10.75C2.483 10.75 1.25 9.517 1.25 8C1.25 6.483 2.483 5.25 4 5.25C5.517 5.25 6.75 6.483 6.75 8C6.75 9.517 5.517 10.75 4 10.75Z" fill="black"/>
</svg>
